<svg width="97" height="22" viewBox="0 0 97 22" fill="none" xmlns="http://www.w3.org/2000/svg">
<path d="M43.416 18.09C45.378 18.09 47.196 17.478 48.384 16.47V11.412H43.11V12.834H46.818V15.588C45.864 16.308 44.694 16.65 43.416 16.65C40.554 16.65 38.664 14.526 38.664 11.628C38.664 8.568 40.662 6.588 43.344 6.588C44.838 6.588 46.098 7.074 47.124 8.064L48.222 7.092C46.872 5.688 45.108 5.094 43.362 5.094C39.51 5.094 37.026 7.83 37.026 11.628C37.026 15.588 39.744 18.09 43.416 18.09ZM51.8722 7.632C52.4662 7.632 52.9342 7.164 52.9342 6.588C52.9342 6.012 52.4662 5.544 51.8722 5.544C51.2782 5.544 50.8102 6.012 50.8102 6.588C50.8102 7.164 51.2782 7.632 51.8722 7.632ZM51.1342 18H52.5922V9.234H51.1342V18ZM57.9043 18.108C58.9483 18.108 59.5423 17.856 60.0283 17.568L59.6503 16.29C59.2183 16.524 58.6783 16.74 58.1563 16.74C57.3283 16.74 57.0943 16.236 57.0943 15.174V10.494H59.9923V9.234H57.0943V6.084L55.6363 6.246V9.234H54.5023V10.494H55.6363V15.39C55.6363 17.154 56.3563 18.108 57.9043 18.108ZM61.9422 18H63.4002V13.59C63.4002 11.61 64.4802 10.458 66.2262 10.458C67.5042 10.458 68.3862 11.178 68.3862 13.158V18H69.8442V12.744C69.8442 10.242 68.5482 9.126 66.6582 9.126C65.2542 9.126 64.1022 9.72 63.4182 10.764H63.4002V4.752H61.9422V18ZM75.4972 18.108C76.6492 18.108 77.7292 17.532 78.3952 16.488H78.4132V18H79.8712V9.234H78.4132V13.482C78.4132 15.57 77.2072 16.776 75.8032 16.776C74.4172 16.776 73.6612 16.02 73.6612 14.04V9.234H72.2032V14.454C72.2032 16.956 73.4812 18.108 75.4972 18.108ZM87.0986 18.108C89.5106 18.108 91.3646 16.344 91.3646 13.68C91.3646 11.088 89.5826 9.126 87.0986 9.126C85.7666 9.126 84.6506 9.72 83.9846 10.764H83.9666V4.752H82.5086V18H83.8946V16.416H83.9306C84.5786 17.46 85.6586 18.108 87.0986 18.108ZM86.9006 16.776C85.2266 16.776 83.8946 15.534 83.8946 13.68C83.8946 11.88 85.1006 10.458 86.8826 10.458C88.5386 10.458 89.8886 11.736 89.8886 13.68C89.8886 15.444 88.6646 16.776 86.9006 16.776Z" fill="white"/>
<path d="M11.1826 0C5.00793 0 0 5.007 0 11.1826C0 16.1234 3.20381 20.315 7.64795 21.7939C8.20614 21.8973 8.38693 21.5507 8.38693 21.2562V19.1744C5.27631 19.8509 4.62865 17.8548 4.62865 17.8548C4.11985 16.5623 3.38646 16.2185 3.38646 16.2185C2.37164 15.5242 3.4638 15.5391 3.4638 15.5391C4.58672 15.6174 5.17753 16.6919 5.17753 16.6919C6.17464 18.4009 7.79332 17.907 8.43166 17.6209C8.53137 16.8987 8.82119 16.4048 9.14175 16.1262C6.65829 15.842 4.04716 14.8831 4.04716 10.5992C4.04716 9.37752 4.48421 8.3804 5.19896 7.59762C5.08341 7.31526 4.70041 6.17744 5.30799 4.63797C5.30799 4.63797 6.24733 4.3379 8.38413 5.78418C9.27594 5.5363 10.2321 5.41236 11.1826 5.4077C12.1331 5.41236 13.0901 5.5363 13.9838 5.78418C16.1187 4.3379 17.0562 4.63797 17.0562 4.63797C17.6647 6.17837 17.2817 7.3162 17.1662 7.59762C17.8837 8.3804 18.3171 9.37845 18.3171 10.5992C18.3171 14.8943 15.7013 15.8401 13.2113 16.1169C13.612 16.4635 13.9782 17.1438 13.9782 18.1875V21.2562C13.9782 21.5535 14.1571 21.9029 14.7246 21.793C19.1651 20.3122 22.3651 16.1215 22.3651 11.1826C22.3651 5.007 17.3581 0 11.1826 0Z" fill="white"/>
</svg>
